<svg width="25" height="25" viewBox="0 0 25 25" fill="none" xmlns="http://www.w3.org/2000/svg">
<circle cx="12.5" cy="12.5" r="12.5" fill="white"/>
<path d="M12.7176 15.6667H7.84454V14.7L10.1443 12.2488C10.4601 11.9037 10.6929 11.6026 10.8426 11.3455C10.9956 11.0883 11.0721 10.8442 11.0721 10.613C11.0721 10.2973 10.9923 10.0499 10.8328 9.87085C10.6733 9.68856 10.4455 9.59741 10.1492 9.59741C9.83022 9.59741 9.57794 9.70809 9.3924 9.92944C9.2101 10.1475 9.11896 10.4356 9.11896 10.7937H7.70294C7.70294 10.3608 7.80548 9.96525 8.01056 9.60718C8.21889 9.2491 8.51186 8.96916 8.88947 8.76733C9.26707 8.56226 9.69513 8.45972 10.1736 8.45972C10.9061 8.45972 11.4741 8.6355 11.8777 8.98706C12.2846 9.33862 12.4881 9.83504 12.4881 10.4763C12.4881 10.8279 12.397 11.186 12.2147 11.5505C12.0324 11.9151 11.7199 12.3399 11.2772 12.825L9.66095 14.5291H12.7176V15.6667ZM16.282 11.0085L17.6151 8.55737H19.2996L17.2293 12.0828L19.3533 15.6667H17.6492L16.282 13.1765L14.9149 15.6667H13.2108L15.3348 12.0828L13.2645 8.55737H14.949L16.282 11.0085Z" fill="black"/>
</svg>
