<svg width="25" height="25" viewBox="0 0 25 25" fill="none" xmlns="http://www.w3.org/2000/svg">
<circle cx="12.5" cy="12.5" r="12.5" fill="white"/>
<path d="M9.28009 11.4871H10.032C10.3901 11.4871 10.6554 11.3975 10.8279 11.2185C11.0005 11.0395 11.0867 10.8018 11.0867 10.5056C11.0867 10.2192 11.0005 9.99618 10.8279 9.83667C10.6587 9.67716 10.4243 9.59741 10.1248 9.59741C9.85463 9.59741 9.6284 9.67228 9.44611 9.82202C9.26381 9.96851 9.17267 10.1606 9.17267 10.3982H7.76154C7.76154 10.0271 7.86082 9.69507 8.05939 9.4021C8.26121 9.10588 8.54116 8.87476 8.89923 8.70874C9.26056 8.54272 9.65769 8.45972 10.0906 8.45972C10.8426 8.45972 11.4318 8.64038 11.8582 9.00171C12.2846 9.35978 12.4979 9.85457 12.4979 10.4861C12.4979 10.8116 12.3986 11.1111 12.2 11.3845C12.0014 11.658 11.741 11.8679 11.4188 12.0144C11.8192 12.1576 12.117 12.3725 12.3123 12.6589C12.5109 12.9454 12.6102 13.2839 12.6102 13.6746C12.6102 14.3061 12.379 14.8123 11.9168 15.1931C11.4578 15.574 10.8491 15.7644 10.0906 15.7644C9.381 15.7644 8.79995 15.5772 8.34747 15.2029C7.89825 14.8285 7.67365 14.3337 7.67365 13.7185H9.08478C9.08478 13.9854 9.18406 14.2035 9.38263 14.3728C9.58445 14.5421 9.83185 14.6267 10.1248 14.6267C10.4601 14.6267 10.7221 14.5388 10.9109 14.363C11.103 14.184 11.199 13.948 11.199 13.655C11.199 12.9454 10.8084 12.5906 10.0272 12.5906H9.28009V11.4871ZM16.282 11.0085L17.6151 8.55737H19.2996L17.2293 12.0828L19.3533 15.6667H17.6492L16.282 13.1765L14.9149 15.6667H13.2108L15.3348 12.0828L13.2645 8.55737H14.949L16.282 11.0085Z" fill="black"/>
</svg>
