<?xml version="1.0" encoding="utf-8"?>
<!DOCTYPE svg PUBLIC "-//W3C//DTD SVG 20010904//EN" "http://www.w3.org/TR/2001/REC-SVG-20010904/DTD/svg10.dtd">
<svg version="1.0" xmlns="http://www.w3.org/2000/svg" width="92px" height="126px" viewBox="0 0 92 126" preserveAspectRatio="xMidYMid meet">
 <g fill="#05bdc9">
  <path d="M3.1 123.4 l-3.1 -2.6 0 -57.3 0 -57.3 2.6 -3.1 2.6 -3.1 40.3 0 40.3 0 3.1 2.6 3.1 2.6 0 57.3 0 57.3 -2.6 3.1 -2.6 3.1 -40.3 0 -40.3 0 -3.1 -2.6z"/>
 </g>
 <g fill="#ffffff">
  <path d="M18 92.4 l0 -11.7 6.5 0.6 c7.7 0.6 10.5 2.5 10.5 7.2 0 4.7 -2 6.6 -7.3 7.2 -4.7 0.6 -4.7 0.6 -4.7 4.4 0 3.5 -0.3 3.9 -2.5 3.9 l-2.5 0 0 -11.6z m12.5 -2.4 c0.9 -2.8 -1.1 -5 -4.6 -5 -2.6 0 -2.9 0.3 -2.9 3.5 0 3.3 0.2 3.5 3.4 3.5 2.6 0 3.6 -0.5 4.1 -2z"/>
  <path d="M39 92.5 l0 -11.5 4.4 0 c4.9 0 9.6 1.5 10.8 3.3 1.3 2.1 0.9 7 -0.9 8.9 -1.5 1.7 -1.5 2.1 0.5 5.7 2.7 4.8 2.7 5.1 -0.1 5.1 -1.8 0 -2.8 -1 -4.2 -4 -1.4 -3 -2.4 -4 -4.2 -4 -2 0 -2.3 0.5 -2.3 4 0 3.3 -0.3 4 -2 4 -1.9 0 -2 -0.7 -2 -11.5z m11.1 -2.1 c1.9 -2.3 -0.1 -4.8 -4 -5.2 -3 -0.3 -3.1 -0.2 -3.1 3.2 0 3.3 0.2 3.6 2.9 3.6 1.6 0 3.4 -0.7 4.2 -1.6z"/>
  <path d="M62.9 102.7 c-4.4 -3.4 -5.6 -13 -2.1 -17.6 5.2 -7 15.1 -4.2 16.8 4.7 0.9 4.4 -1.1 10.7 -3.9 12.7 -2.6 1.8 -8.6 1.9 -10.8 0.2z m9.1 -4.6 c0.5 -1.1 1 -3.6 1 -5.6 0 -4.9 -1.6 -7.5 -4.5 -7.5 -4.5 0 -6.8 6.4 -4.5 12.4 1.2 3.3 6.4 3.7 8 0.7z"/>
  <path d="M19.6 55 c-7.3 -6.5 -7.2 -22.9 0.3 -28.7 5.7 -4.5 15.9 -3.1 19.8 2.6 3.2 4.7 3 6.1 -1 6.1 -2.4 0 -3.5 -0.6 -4.2 -2.2 -1.3 -3 -5.7 -4.5 -8.9 -3 -5 2.3 -6 16 -1.4 20.9 2.1 2.2 5.9 3 9.2 1.7 1 -0.4 1.6 -1.8 1.6 -4 0 -3.1 -0.3 -3.4 -3 -3.4 -2.5 0 -3 -0.4 -3 -2.5 0 -2.4 0.2 -2.5 6.5 -2.5 l6.5 0 0 7 c0 6.9 -0.1 7.1 -3.2 9 -2.4 1.4 -5.1 2 -9.5 2 -5.5 0 -6.6 -0.4 -9.7 -3z"/>
  <path d="M53.7 56.2 c-4.1 -2.5 -6.7 -8.7 -6.7 -15.8 0 -10.6 5.5 -16.8 14.8 -16.6 5.6 0 9 2.4 12 8.2 3.8 7.5 2.4 17 -3.3 22.7 -2.9 2.9 -3.9 3.3 -8.6 3.3 -3.3 0 -6.5 -0.7 -8.2 -1.8z m12.2 -5.5 c2.8 -3.1 3.7 -10.8 1.9 -16.2 -1 -3.1 -2 -4.1 -4.5 -4.9 -6.7 -1.9 -10.1 3.6 -9.1 14.6 0.8 8.2 6.9 11.5 11.7 6.5z"/>
 </g>
</svg>